<svg xmlns="http://www.w3.org/2000/svg" width="48" height="32" viewBox="0 0 48 32"><defs><style>.a{fill:rgba(255,255,255,0);stroke:rgba(0,0,0,0);}.b{fill:#999;}.c{stroke:none;}.d{fill:none;}</style></defs><g transform="translate(-3508 -7058)"><g class="a" transform="translate(3508 7058)"><rect class="c" width="48" height="32"/><rect class="d" x="0.5" y="0.5" width="47" height="31"/></g><path class="b" d="M-3.937-1.654H8.6a.793.793,0,0,0,.784-.806A.793.793,0,0,0,8.6-3.266H-3.754c-.612,0-.988-.43-1.085-1.085l-.172-1.128H8.621c1.568,0,2.374-.967,2.6-2.5l.859-5.683a3.31,3.31,0,0,0,.043-.408.878.878,0,0,0-.978-.87H-6.4l-.2-1.364c-.107-.827-.408-1.246-1.5-1.246h-3.771a.817.817,0,0,0-.795.806.819.819,0,0,0,.795.816h3.631L-6.526-4.136C-6.3-2.61-5.495-1.654-3.937-1.654ZM10.3-13.32,9.534-8.175C9.448-7.509,9.093-7.1,8.459-7.1L-5.248-7.09l-.913-6.23ZM-3.088,3.566a1.726,1.726,0,0,0,1.74-1.74A1.733,1.733,0,0,0-3.088.086a1.735,1.735,0,0,0-1.751,1.74A1.729,1.729,0,0,0-3.088,3.566Zm10.044,0A1.74,1.74,0,1,0,5.2,1.826,1.729,1.729,0,0,0,6.956,3.566Z" transform="translate(3532 7082)"/></g></svg>