<svg xmlns="http://www.w3.org/2000/svg" width="12" height="11.99" viewBox="0 0 12 11.99"><defs><style>.a{fill:#fff;}</style></defs><g transform="translate(-6.4 -6.4)"><g transform="translate(6.4 6.4)"><path class="a" d="M6.823,8.961h.465l1.084,9.057a.417.417,0,0,0,.423.372H16a.424.424,0,0,0,.423-.372l1.084-9.057h.465a.423.423,0,0,0,0-.847H14.734V6.823a.419.419,0,0,0-.423-.423H10.49a.419.419,0,0,0-.423.423V8.114H6.823a.419.419,0,0,0-.423.423.425.425,0,0,0,.423.423Zm4.09-1.714h2.974v.867H10.913Zm5.742,1.714-1.022,8.592H9.168L8.145,8.961Z" transform="translate(-6.4 -6.4)"/><path class="a" d="M47.223,50.517a.419.419,0,0,0,.423-.423V45.023a.423.423,0,1,0-.847,0v5.071A.419.419,0,0,0,47.223,50.517Z" transform="translate(-42.628 -40.655)"/><path class="a" d="M74.423,50.517a.419.419,0,0,0,.423-.423V45.023a.423.423,0,1,0-.847,0v5.071A.425.425,0,0,0,74.423,50.517Z" transform="translate(-67.019 -40.655)"/></g></g></svg>