<svg xmlns="http://www.w3.org/2000/svg" width="48" height="32" viewBox="0 0 48 32"><defs><style>.a{fill:rgba(255,255,255,0);stroke:rgba(0,0,0,0);}.b{fill:#999;}.c{stroke:none;}.d{fill:none;}</style></defs><g transform="translate(-3508 -7058)"><g class="a" transform="translate(3508 7058)"><rect class="c" width="48" height="32"/><rect class="d" x="0.5" y="0.5" width="47" height="31"/></g><path class="b" d="M-12.821-8.357A.871.871,0,0,0-11.9-7.5a1.247,1.247,0,0,0,.773-.344L-.371-16.865a.532.532,0,0,1,.763,0L11.145-7.842a1.194,1.194,0,0,0,.763.344.837.837,0,0,0,.913-.827.878.878,0,0,0-.333-.73L9.48-11.591v-4.3a.722.722,0,0,0-.773-.773H7.557a.727.727,0,0,0-.773.773v2.03l-5.479-4.6a1.9,1.9,0,0,0-2.589,0l-11.193,9.4A.9.9,0,0,0-12.821-8.357Zm3.352,9.593A2.195,2.195,0,0,0-7.052,3.6H7.074A2.187,2.187,0,0,0,9.48,1.235V-7.283l-8.83-7.4a.945.945,0,0,0-1.289,0l-8.83,7.4Zm12.246.634H-2.766v-7.1a.775.775,0,0,1,.827-.816h3.9a.767.767,0,0,1,.816.816Z" transform="translate(3532 7082)"/></g></svg>