<svg xmlns="http://www.w3.org/2000/svg" width="16" height="14.369" viewBox="0 0 16 14.369"><defs><style>.a{opacity:0.3;}.b{fill:#1a1824;}</style></defs><g class="a" transform="translate(0 -26.091)"><g transform="translate(0 26.091)"><path class="b" d="M15.878,26.34a.62.62,0,0,0-.642-.232L.474,29.68a.619.619,0,0,0-.158,1.142l5.457,3.065,1.344,6.088a.619.619,0,0,0,.509.478.627.627,0,0,0,.1.007.619.619,0,0,0,.535-.307l7.66-13.13A.62.62,0,0,0,15.878,26.34ZM7.985,38.16l-.976-4.42L9.1,32.183a.619.619,0,0,0-.739-.994L6.271,32.745,2.3,30.513l11.817-2.859Z" transform="translate(0 -26.091)"/></g></g></svg>