<svg xmlns="http://www.w3.org/2000/svg" width="18.691" height="18.691" viewBox="0 0 18.691 18.691"><defs><style>.a{fill:#ea0a8e;}</style></defs><path class="a" d="M8.74-10.4a.553.553,0,0,0,.605-.615v-2.51a2.551,2.551,0,0,0-2.881-2.852H3.955a.553.553,0,0,0-.615.605.558.558,0,0,0,.615.605h2.48a1.529,1.529,0,0,1,1.7,1.709v2.441A.553.553,0,0,0,8.74-10.4Zm-17.48,0a.553.553,0,0,0,.605-.615v-2.441a1.518,1.518,0,0,1,1.689-1.709h2.48a.553.553,0,0,0,.615-.605.549.549,0,0,0-.615-.605h-2.5a2.547,2.547,0,0,0-2.881,2.852v2.51A.553.553,0,0,0-8.74-10.4Zm3.486,4.326,4.541.01L-.7-1.592c0,.547.264.859.713.859a.89.89,0,0,0,.781-.625l4.473-9.57a1.322,1.322,0,0,0,.137-.537.683.683,0,0,0-.7-.7,1.454,1.454,0,0,0-.537.137L-5.469-7.549a.848.848,0,0,0-.566.762A.683.683,0,0,0-5.254-6.074ZM-6.465,2.314h2.5a.553.553,0,0,0,.615-.605A.549.549,0,0,0-3.965,1.1h-2.48A1.522,1.522,0,0,1-8.135-.605V-3.047a.553.553,0,0,0-.605-.615.549.549,0,0,0-.605.615v2.5A2.55,2.55,0,0,0-6.465,2.314Zm10.42,0h2.51A2.554,2.554,0,0,0,9.346-.547v-2.5a.558.558,0,0,0-.605-.615.549.549,0,0,0-.605.615V-.605A1.533,1.533,0,0,1,6.436,1.1H3.955a.553.553,0,0,0-.615.605A.558.558,0,0,0,3.955,2.314Z" transform="translate(9.346 16.377)"/></svg>