<svg xmlns="http://www.w3.org/2000/svg" width="19.922" height="19.922" viewBox="0 0 19.922 19.922"><defs><style>.a{fill:#34c759;}</style></defs><path class="a" d="M11.709,2.91A10.035,10.035,0,0,0,21.67-7.051,10.037,10.037,0,0,0,11.7-17.012,10.026,10.026,0,0,0,1.748-7.051,10.041,10.041,0,0,0,11.709,2.91Zm0-1.66a8.261,8.261,0,0,1-8.291-8.3,8.252,8.252,0,0,1,8.281-8.3,8.283,8.283,0,0,1,8.311,8.3A8.263,8.263,0,0,1,11.709,1.25ZM10.635-2.412a.916.916,0,0,0,.791-.459l4.463-7.021a1.36,1.36,0,0,0,.234-.625.757.757,0,0,0-.8-.713.822.822,0,0,0-.674.439L10.6-4.3,8.672-6.777a.826.826,0,0,0-.723-.4A.759.759,0,0,0,7.2-6.4a1.054,1.054,0,0,0,.225.605L9.8-2.871A.994.994,0,0,0,10.635-2.412Z" transform="translate(-1.748 17.012)"/></svg>