<svg xmlns="http://www.w3.org/2000/svg" width="48" height="32" viewBox="0 0 48 32"><defs><style>.a{fill:rgba(255,255,255,0);stroke:rgba(0,0,0,0);}.b{fill:#999;}.c{stroke:none;}.d{fill:none;}</style></defs><g transform="translate(-3508 -7058)"><g class="a" transform="translate(3508 7058)"><rect class="c" width="48" height="32"/><rect class="d" x="0.5" y="0.5" width="47" height="31"/></g><path class="b" d="M0,3.2A11.038,11.038,0,0,0,10.957-7.756,11.04,11.04,0,0,0-.011-18.713,11.029,11.029,0,0,0-10.957-7.756,11.045,11.045,0,0,0,0,3.2ZM0,1.375A9.087,9.087,0,0,1-9.12-7.756,9.078,9.078,0,0,1-.011-16.887,9.112,9.112,0,0,1,9.131-7.756,9.089,9.089,0,0,1,0,1.375ZM-.011-8.089A2.849,2.849,0,0,0,2.75-11.1,2.875,2.875,0,0,0-.011-14.051,2.875,2.875,0,0,0-2.771-11.1,2.863,2.863,0,0,0-.011-8.089ZM-4.92-2.31H4.9a.6.6,0,0,0,.634-.677c0-1.171-1.772-4.222-5.543-4.222S-5.554-4.157-5.554-2.986A.6.6,0,0,0-4.92-2.31Z" transform="translate(3532 7082)"/></g></svg>