<svg xmlns="http://www.w3.org/2000/svg" width="48" height="32" viewBox="0 0 48 32"><defs><style>.a{fill:rgba(255,255,255,0);stroke:rgba(0,0,0,0);}.b{fill:#999;}.c{stroke:none;}.d{fill:none;}</style></defs><g transform="translate(-3508 -7058)"><g class="a" transform="translate(3508 7058)"><rect class="c" width="48" height="32"/><rect class="d" x="0.5" y="0.5" width="47" height="31"/></g><path class="b" d="M-1.853-1.622a8.234,8.234,0,0,0,4.8-1.547L8.041,1.923a1.225,1.225,0,0,0,.881.354,1.178,1.178,0,0,0,1.192-1.225A1.183,1.183,0,0,0,9.77.193L4.71-4.877a8.228,8.228,0,0,0,1.7-5.006,8.284,8.284,0,0,0-8.261-8.261,8.284,8.284,0,0,0-8.261,8.261A8.284,8.284,0,0,0-1.853-1.622Zm0-1.783A6.52,6.52,0,0,1-8.331-9.883,6.52,6.52,0,0,1-1.853-16.36,6.52,6.52,0,0,1,4.625-9.883,6.52,6.52,0,0,1-1.853-3.405Z" transform="translate(3532 7082)"/></g></svg>