<svg xmlns="http://www.w3.org/2000/svg" width="48" height="32" viewBox="0 0 48 32"><defs><style>.a{fill:rgba(255,255,255,0);stroke:rgba(0,0,0,0);}.b{fill:#999;}.c{stroke:none;}.d{fill:none;}</style></defs><g transform="translate(-3508 -7058)"><g class="a" transform="translate(3508 7058)"><rect class="c" width="48" height="32"/><rect class="d" x="0.5" y="0.5" width="47" height="31"/></g><path class="b" d="M-10.667-10.8c0,4.576,3.835,9.077,9.894,12.944A1.761,1.761,0,0,0,0,2.438a1.85,1.85,0,0,0,.784-.29C6.832-1.719,10.667-6.22,10.667-10.8c0-3.8-2.61-6.488-6.091-6.488A5.4,5.4,0,0,0,0-14.889a5.4,5.4,0,0,0-4.576-2.4C-8.057-17.284-10.667-14.6-10.667-10.8Zm1.729,0c0-2.857,1.848-4.759,4.34-4.759A4.494,4.494,0,0,1-.73-13.224c.29.43.473.548.73.548s.419-.129.73-.548A4.629,4.629,0,0,1,4.6-15.555c2.492,0,4.34,1.9,4.34,4.759,0,4-4.222,8.3-8.712,11.29A.634.634,0,0,1,0,.623.539.539,0,0,1-.215.494C-4.716-2.492-8.937-6.8-8.937-10.8Z" transform="translate(3532 7082)"/></g></svg>